<?xml version="1.0" encoding="utf-8"?>
<!-- Generator: Adobe Illustrator 16.0.0, SVG Export Plug-In . SVG Version: 6.00 Build 0)  -->
<!DOCTYPE svg PUBLIC "-//W3C//DTD SVG 1.0//EN" "http://www.w3.org/TR/2001/REC-SVG-20010904/DTD/svg10.dtd">
<svg version="1.0" id="Calque_2" xmlns="http://www.w3.org/2000/svg" xmlns:xlink="http://www.w3.org/1999/xlink" x="0px" y="0px"
	 width="84px" height="84px" viewBox="0 0 84 84" enable-background="new 0 0 84 84" xml:space="preserve">
<g>
	<g>
		<rect x="-0.001" y="0" fill="#00447A" width="84.001" height="84"/>
	</g>
	<g>
		<rect x="65.623" y="63.023" fill="#FF9200" width="8.887" height="8.889"/>
		<g>
			<path fill="#FFFFFF" d="M17.953,32.1h-4.762v-4.916h5.1c1.922,0,2.846,0.852,2.846,2.402C21.137,31.62,19.656,32.1,17.953,32.1
				 M13.172,18.28h4.309c1.662,0,2.773,0.478,2.773,1.811c0,1.697-1.076,2.182-2.773,2.182h-4.309V18.28z M67.469,12l-3.771,15.519
				h-0.072L59.854,12H28.75v15.507c-0.789-2.001-2.387-3.142-4.072-3.722c1.965-1.068,3.256-2.508,3.256-5.176
				c0-2.695-1.479-6.609-8.426-6.609H5.059v26.381h14.965c3.768,0,7.439-1.817,8.727-5.296v5.296h8.121V28.331h7.426v-6.06h-7.443
				V18.28h11.434v20.102h7.686V21.46h0.08l4.576,16.921h6.061l4.578-16.921h0.078v16.921h7.688V12H67.469L67.469,12z"/>
		</g>
		<polygon fill="#FFFFFF" points="57.363,41.354 52.451,59.885 52.359,59.885 47.355,41.354 16.158,41.354 16.158,49.18 
			23.857,49.18 23.857,71.912 33.271,71.912 33.271,49.18 40.191,49.18 46.965,71.912 57.5,71.912 67.037,41.354 		"/>
	</g>
</g>
</svg>
