<?xml version="1.0" encoding="UTF-8" standalone="no"?>
<!-- Generator: Adobe Illustrator 16.0.4, SVG Export Plug-In . SVG Version: 6.00 Build 0)  -->

<svg
   xmlns:dc="http://purl.org/dc/elements/1.1/"
   xmlns:cc="http://creativecommons.org/ns#"
   xmlns:rdf="http://www.w3.org/1999/02/22-rdf-syntax-ns#"
   xmlns:svg="http://www.w3.org/2000/svg"
   xmlns="http://www.w3.org/2000/svg"
   xmlns:sodipodi="http://sodipodi.sourceforge.net/DTD/sodipodi-0.dtd"
   xmlns:inkscape="http://www.inkscape.org/namespaces/inkscape"
   height="238.39"
   viewBox="0 0 810 238.39"
   aria-hidden="true"
   version="1.1"
   id="svg4"
   sodipodi:docname="capital1.svg"
   inkscape:version="0.92.3 (2405546, 2018-03-11)"
   inkscape:export-filename="/home/perezcri/Documents/angular/demo/src/assets/capital1.png"
   inkscape:export-xdpi="300"
   inkscape:export-ydpi="300"
   width="810">
  <metadata
     id="metadata10">
    <rdf:RDF>
      <cc:Work
         rdf:about="">
        <dc:format>image/svg+xml</dc:format>
        <dc:type
           rdf:resource="http://purl.org/dc/dcmitype/StillImage" />
        <dc:title></dc:title>
      </cc:Work>
    </rdf:RDF>
  </metadata>
  <defs
     id="defs8" />
  <sodipodi:namedview
     pagecolor="#ffffff"
     bordercolor="#666666"
     borderopacity="1"
     objecttolerance="10"
     gridtolerance="10"
     guidetolerance="10"
     inkscape:pageopacity="0"
     inkscape:pageshadow="2"
     inkscape:window-width="1364"
     inkscape:window-height="732"
     id="namedview6"
     showgrid="false"
     inkscape:zoom="0.60246914"
     inkscape:cx="207.4795"
     inkscape:cy="251.67689"
     inkscape:window-x="0"
     inkscape:window-y="35"
     inkscape:window-maximized="0"
     inkscape:current-layer="svg4"
     fit-margin-top="0"
     fit-margin-left="0"
     fit-margin-right="0"
     fit-margin-bottom="0" />
  <path
     d="m 168.927,156.621 -36.456,-27.516 c -10.618,13.66 -21.488,22.77 -39.944,22.77 -24.775,0 -42.219,-21.966 -42.219,-50.09 v -0.536 c 0,-27.321 17.444,-49.82 42.22,-49.82 16.937,0 28.567,8.84 38.679,21.964 l 36.91,-30.267 C 152.443,20.358 129.185,4.286 93.033,4.286 39.438,4.286 0,47.144 0,101.786 v 0.536 c 0,55.978 40.702,96.962 91.263,96.962 38.618,0 61.067,-17.657 77.712,-41.731 1.56,26.442 20.708,41.194 45.655,41.194 17.95,0 30.843,-7.499 40.45,-18.481 v 15.267 h 47.275 v -83.301 c 0,-20.357 -4.298,-35.358 -14.664,-46.072 -10.87,-11.517 -27.555,-17.677 -52.078,-17.677 -23.511,0 -39.944,4.552 -55.364,11.249 l 9.859,35.624 c 12.388,-4.82 23.511,-8.035 37.92,-8.035 18.456,0 27.304,8.572 27.304,23.838 v 2.41 c -7.837,-3.211 -20.224,-5.625 -32.865,-5.625 -32.106,0 -53.595,15.27 -53.595,45.536 v 0.536 c 0,0.88 0.018,1.749 0.055,2.605 z m 0,0 0.453,0.342 c -0.134,0.197 -0.27,0.394 -0.405,0.59 -0.018,-0.309 -0.034,-0.62 -0.048,-0.932 z m 86.911,-13.587 v -6.695 c -5.056,-2.142 -11.882,-3.751 -18.96,-3.751 -13.905,0 -21.995,6.963 -21.995,17.945 v 0.537 c 0,9.91 7.079,15.803 16.939,15.803 14.156,0 24.016,-9.374 24.016,-23.84 z m 54.791,-92.409 h 48.034 V 69.91 c 9.353,-12.054 20.982,-22.5 41.46,-22.5 32.63,0 60.702,28.662 60.702,75 v 0.536 c 0,47.142 -28.072,75.802 -60.45,75.802 -20.73,0 -32.864,-9.91 -41.712,-20.892 v 60.534 h -48.034 z m 103.151,72.59 v -0.537 c 0,-19.287 -12.646,-32.947 -28.067,-32.947 -15.674,0 -28.062,13.66 -28.062,32.947 v 0.536 c 0,19.283 12.388,32.945 28.062,32.945 15.421,0 28.067,-13.394 28.067,-32.945 z m 54.244,72.318 h 47.781 V 50.625 H 468.024 Z M 467.013,37.5 h 49.803 V 0 h -49.803 z m 70.844,113.033 V 91.34 H 521.678 V 50.625 h 16.179 V 13.93 h 47.781 v 36.695 h 31.856 v 40.714 h -31.856 v 49.284 c 0,10.178 4.3,14.466 13.146,14.466 6.32,0 12.39,-1.877 18.203,-4.824 v 39.642 c -8.594,5.09 -19.973,8.572 -33.37,8.572 -28.82,0 -45.76,-13.392 -45.76,-47.946 z m 82.418,3.483 v -0.536 c 0,-30.266 21.488,-45.536 53.595,-45.536 12.638,0 25.028,2.414 32.864,5.626 v -2.411 c 0,-15.266 -8.847,-23.838 -27.302,-23.838 -14.412,0 -25.535,3.215 -37.921,8.035 l -9.86,-35.624 c 15.421,-6.697 31.852,-11.25 55.364,-11.25 24.521,0 41.206,6.16 52.078,17.678 10.364,10.714 14.663,25.715 14.663,46.072 v 83.3 h -47.274 v -15.266 c -9.61,10.982 -22.503,18.481 -40.45,18.481 -26.04,0 -45.757,-16.07 -45.757,-44.73 z m 86.966,-10.982 v -6.695 c -5.058,-2.142 -11.883,-3.751 -18.963,-3.751 -13.904,0 -21.995,6.963 -21.995,17.945 v 0.537 c 0,9.91 7.08,15.803 16.94,15.803 14.157,0 24.018,-9.374 24.018,-23.84 z m 54.98,52.499 H 810 V 0 h -47.778 v 195.533 z"
     id="path2"
     style="fill:#2a7fff;fill-rule:evenodd;stroke:none"
     inkscape:export-xdpi="300"
     inkscape:export-ydpi="300"
     inkscape:connector-curvature="0" />
</svg>
